# xmcd CD database file
#
# Track frame offsets:
#	150
#	18025
#	35420
#	49372
#	67685
#	80267
#	92035
#	108597
#	121382
#	133725
#	155262
#
# Disc length: 2289 seconds
#
# Revision: 0
# Processed by: cddbd v1.5.2PL0 Copyright (c) Steve Scherf et al.
# Submitted via: CDex 1.51
#
DISCID=8308ef0b
DTITLE=Various Artist - Täyttä terästä - Uusia lauluja työstä
DYEAR=2004
DGENRE=Blues
TTITLE0=Waymen - Metallimies
TTITLE1=Risto Rautio  ja yhtye - Kutsuhitsaaja Raatikainen
TTITLE2=Jarmo Mäkinen ja yhtye - Viimeinen laiva
TTITLE3=Waymen - Reissumiehen blues
TTITLE4=Rytke - Naurettava duuni
TTITLE5=Waymen - Täyttä terästä
TTITLE6=Juha Back ja yhtye - Jumaluus
TTITLE7=Jani Piirainen - Naisia Joensuun tehtaassa
TTITLE8=Nina Laaksonen ja yhtye - Kilometritehtaalla
TTITLE9=J. J. Karjalainen - Hitsauskurssi
TTITLE10=Risto Rautio ja yhtye - Sorvin ääreen
EXTD=YEAR: 2004
EXTT0=
EXTT1=
EXTT2=
EXTT3=
EXTT4=
EXTT5=
EXTT6=
EXTT7=
EXTT8=
EXTT9=
EXTT10=
PLAYORDER=
